<svg xmlns="http://www.w3.org/2000/svg" viewBox="0 0 480 220" width="480" height="220">
  <rect width="480" height="220" fill="#0c2029"/>
  <!-- shelf -->
  <g transform="translate(40 34)">
    <rect width="220" height="160" rx="12" fill="#10242f" stroke="#2a4c5c" stroke-width="2"/>
    <path d="M0 80h220" stroke="#2a4c5c" stroke-width="2"/>
    <rect x="18" y="26" width="44" height="46" rx="6" fill="#143040" stroke="#3d6474" stroke-width="1.5"/>
    <rect x="70" y="14" width="40" height="58" rx="6" fill="#22d3ee" opacity=".85"/>
    <rect x="118" y="34" width="38" height="38" rx="6" fill="#143040" stroke="#3d6474" stroke-width="1.5"/>
    <rect x="164" y="22" width="40" height="50" rx="6" fill="#143040" stroke="#3d6474" stroke-width="1.5"/>
    <rect x="18" y="100" width="56" height="52" rx="6" fill="#143040" stroke="#3d6474" stroke-width="1.5"/>
    <rect x="82" y="112" width="36" height="40" rx="6" fill="#143040" stroke="#3d6474" stroke-width="1.5"/>
    <rect x="126" y="96" width="44" height="56" rx="6" fill="#143040" stroke="#3d6474" stroke-width="1.5"/>
    <path d="M86 42h8M90 38v8" stroke="#0c2029" stroke-width="3" stroke-linecap="round"/>
  </g>
  <!-- capsule -->
  <g transform="translate(236 150) rotate(-35)">
    <rect width="64" height="26" rx="13" fill="#e6f1f4"/>
    <path d="M32 0h19a13 13 0 0 1 0 26H32z" fill="#22d3ee"/>
  </g>
  <!-- stock chart -->
  <g transform="translate(300 40)">
    <rect width="150" height="140" rx="12" fill="#143040"/>
    <rect x="16" y="16" width="56" height="7" rx="3.5" fill="#3d6474"/>
    <rect x="20" y="92" width="16" height="32" rx="3" fill="#3d6474"/>
    <rect x="46" y="72" width="16" height="52" rx="3" fill="#3d6474"/>
    <rect x="72" y="84" width="16" height="40" rx="3" fill="#3d6474"/>
    <rect x="98" y="52" width="16" height="72" rx="3" fill="#22d3ee"/>
    <rect x="124" y="104" width="12" height="20" rx="3" fill="#3d6474"/>
  </g>
</svg>
